# This file uses centimeters as units for non-parametric coordinates.

mtllib Car1Body.mtl
g default
v -3.284746 0.759704 1.320604
v -2.779400 0.759704 1.320604
v -2.568179 0.993731 1.320604
v -2.291629 1.087880 1.320604
v -1.975318 0.993731 1.320604
v -1.746827 0.759704 1.320604
v -0.997246 0.759704 1.320604
v 0.997246 0.759704 1.320604
v 1.746827 0.759704 1.320604
v 1.975318 0.993731 1.320604
v 2.291629 1.087880 1.320604
v 2.568179 0.993731 1.320604
v 2.779400 0.759704 1.320604
v 3.284745 0.759704 1.320604
v -2.779400 2.424885 1.320604
v -2.568179 2.424885 1.320604
v -2.291629 2.424885 1.320604
v -1.975318 2.424885 1.320604
v -1.746827 2.424885 1.320604
v -0.997246 3.657693 1.320604
v 0.997246 3.657693 1.320604
v 1.746827 2.424885 1.320604
v 1.975318 2.424885 1.320604
v 2.291629 2.424885 1.320604
v 2.568179 2.424885 1.320604
v 2.779400 2.424885 1.320604
v 3.284745 2.424885 1.320604
v -2.779400 2.424885 -1.320604
v -2.568179 2.424885 -1.320604
v -2.291629 2.424885 -1.320604
v -1.975318 2.424885 -1.320604
v -1.746827 2.424885 -1.320604
v -0.997246 3.657693 -1.320604
v 0.997246 3.657693 -1.320604
v 1.746827 2.424885 -1.320604
v 1.975318 2.424885 -1.320604
v 2.291629 2.424885 -1.320604
v 2.568179 2.424885 -1.320604
v 2.779400 2.424885 -1.320604
v 3.284745 2.424885 -1.320604
v -3.284746 0.759704 -1.320604
v -2.779400 0.759704 -1.320604
v -2.568179 0.993731 -1.320604
v -2.291629 1.087880 -1.320604
v -1.975318 0.993731 -1.320604
v -1.746827 0.759704 -1.320604
v -0.997246 0.759704 -1.320604
v 0.997246 0.759704 -1.320604
v 1.746827 0.759704 -1.320604
v 1.975318 0.993731 -1.320604
v 2.291629 1.087880 -1.320604
v 2.568179 0.993731 -1.320604
v 2.779400 0.759704 -1.320604
v 3.284745 0.759704 -1.320604
v -3.284746 1.970120 1.320604
v -2.829980 2.424885 1.320604
v -3.284746 1.970120 -1.320604
v -2.829980 2.424885 -1.320604
vt 0.001886 0.001992
vt 0.022214 0.001992
vt 0.022214 0.266262
vt 0.020179 0.266262
vt 0.001886 0.194089
vt 0.030711 0.039133
vt 0.030711 0.266262
vt 0.041835 0.054075
vt 0.041836 0.266262
vt 0.054560 0.039133
vt 0.054560 0.266262
vt 0.063751 0.001992
vt 0.063751 0.266262
vt 0.093904 0.001992
vt 0.093904 0.461912
vt 0.174136 0.001992
vt 0.174136 0.461912
vt 0.204290 0.001992
vt 0.204290 0.266262
vt 0.213481 0.039133
vt 0.213481 0.266262
vt 0.226205 0.054075
vt 0.226205 0.266262
vt 0.237330 0.039133
vt 0.237330 0.266262
vt 0.245827 0.001992
vt 0.245827 0.266262
vt 0.266155 0.001992
vt 0.266155 0.266262
vt 0.607039 0.395642
vt 0.871309 0.395642
vt 0.871309 0.397676
vt 0.607039 0.397676
vt 0.871309 0.406173
vt 0.607039 0.406173
vt 0.871309 0.417298
vt 0.607039 0.417298
vt 0.871309 0.430022
vt 0.607039 0.430022
vt 0.871309 0.439214
vt 0.607039 0.439214
vt 0.871309 0.634864
vt 0.607039 0.634864
vt 0.871309 0.715096
vt 0.607039 0.715096
vt 0.871309 0.910747
vt 0.607039 0.910746
vt 0.871309 0.919938
vt 0.607039 0.919938
vt 0.871309 0.932662
vt 0.607039 0.932662
vt 0.871309 0.943787
vt 0.607039 0.943787
vt 0.871308 0.952284
vt 0.607039 0.952284
vt 0.871308 0.972612
vt 0.607039 0.972612
vt 0.517201 0.266262
vt 0.508704 0.266262
vt 0.508704 0.039133
vt 0.517201 0.001992
vt 0.497580 0.266262
vt 0.497580 0.054075
vt 0.484856 0.266262
vt 0.484856 0.039133
vt 0.475664 0.266262
vt 0.475664 0.001992
vt 0.445511 0.461912
vt 0.445511 0.001992
vt 0.365279 0.461912
vt 0.365279 0.001992
vt 0.335126 0.266262
vt 0.335126 0.001992
vt 0.325934 0.266262
vt 0.325934 0.039133
vt 0.313210 0.266262
vt 0.313210 0.054075
vt 0.302085 0.266262
vt 0.302085 0.039133
vt 0.293588 0.266262
vt 0.293588 0.001992
vt 0.273260 0.266262
vt 0.273260 0.001992
vt 0.458136 0.729960
vt 0.437807 0.729960
vt 0.437807 0.465690
vt 0.458136 0.465690
vt 0.400667 0.729960
vt 0.400667 0.465690
vt 0.385725 0.729960
vt 0.385725 0.465690
vt 0.370783 0.729960
vt 0.370783 0.465690
vt 0.333642 0.729960
vt 0.333642 0.465690
vt 0.303489 0.729960
vt 0.303489 0.465690
vt 0.223257 0.729960
vt 0.223257 0.465690
vt 0.193104 0.729960
vt 0.193104 0.465690
vt 0.155963 0.729960
vt 0.155963 0.465690
vt 0.141021 0.729960
vt 0.141021 0.465690
vt 0.126080 0.729960
vt 0.126079 0.465690
vt 0.088939 0.729960
vt 0.088939 0.465690
vt 0.068610 0.729960
vt 0.068610 0.465690
vt 0.001886 0.733738
vt 0.266155 0.733738
vt 0.266155 0.998008
vt 0.001886 0.998008
vt 0.273260 0.733738
vt 0.537530 0.733738
vt 0.537530 0.925835
vt 0.273260 0.925835
vt 0.537530 0.194089
vt 0.519236 0.266262
vt 0.537530 0.001992
vt 0.537530 0.998008
vt 0.273260 0.998008
vn 0.000000 0.000000 1.000000
vn 0.000000 0.000000 1.000000
vn 0.000000 0.000000 1.000000
vn 0.000000 0.000000 1.000000
vn 0.000000 0.000000 1.000000
vn 0.000000 0.000000 1.000000
vn 0.000000 0.000000 1.000000
vn 0.000000 0.000000 1.000000
vn 0.000000 0.000000 1.000000
vn 0.000000 0.000000 1.000000
vn 0.000000 0.000000 1.000000
vn 0.000000 0.000000 1.000000
vn 0.000000 0.000000 1.000000
vn 0.000000 0.000000 1.000000
vn 0.000000 0.000000 1.000000
vn 0.000000 0.000000 1.000000
vn 0.000000 0.000000 1.000000
vn 0.000000 0.000000 1.000000
vn 0.000000 0.000000 1.000000
vn 0.000000 0.000000 1.000000
vn 0.000000 0.000000 1.000000
vn 0.000000 0.000000 1.000000
vn 0.000000 0.000000 1.000000
vn 0.000000 0.000000 1.000000
vn 0.000000 0.000000 1.000000
vn 0.000000 0.000000 1.000000
vn 0.000000 0.000000 1.000000
vn 0.000000 0.000000 1.000000
vn 0.000000 0.000000 1.000000
vn 0.000000 0.000000 1.000000
vn 0.000000 0.000000 1.000000
vn 0.000000 0.000000 1.000000
vn 0.000000 0.000000 1.000000
vn 0.000000 0.000000 1.000000
vn 0.000000 0.000000 1.000000
vn 0.000000 0.000000 1.000000
vn 0.000000 0.000000 1.000000
vn 0.000000 0.000000 1.000000
vn 0.000000 0.000000 1.000000
vn 0.000000 0.000000 1.000000
vn 0.000000 0.000000 1.000000
vn 0.000000 0.000000 1.000000
vn 0.000000 0.000000 1.000000
vn 0.000000 0.000000 1.000000
vn 0.000000 0.000000 1.000000
vn 0.000000 0.000000 1.000000
vn 0.000000 0.000000 1.000000
vn 0.000000 0.000000 1.000000
vn 0.000000 0.000000 1.000000
vn 0.000000 0.000000 1.000000
vn 0.000000 0.000000 1.000000
vn 0.000000 1.000000 0.000000
vn 0.000000 1.000000 0.000000
vn 0.000000 1.000000 0.000000
vn 0.000000 1.000000 0.000000
vn 0.000000 1.000000 0.000000
vn 0.000000 1.000000 0.000000
vn 0.000000 1.000000 0.000000
vn 0.000000 1.000000 0.000000
vn 0.000000 1.000000 0.000000
vn 0.000000 1.000000 0.000000
vn 0.000000 1.000000 0.000000
vn 0.000000 1.000000 0.000000
vn 0.000000 1.000000 0.000000
vn 0.000000 1.000000 0.000000
vn 0.000000 1.000000 0.000000
vn 0.000000 1.000000 0.000000
vn 0.000000 1.000000 0.000000
vn -0.783396 0.621523 0.000000
vn -0.783396 0.621523 0.000000
vn 0.000000 1.000000 0.000000
vn -0.783396 0.621523 0.000000
vn -0.409805 0.912173 0.000000
vn -0.409805 0.912173 0.000000
vn -0.783396 0.621523 0.000000
vn -0.409805 0.912173 0.000000
vn 0.409805 0.912173 0.000000
vn 0.409805 0.912173 0.000000
vn -0.409805 0.912173 0.000000
vn 0.409805 0.912173 0.000000
vn 0.783396 0.621523 0.000000
vn 0.783396 0.621523 0.000000
vn 0.409805 0.912173 0.000000
vn 0.783396 0.621523 0.000000
vn 0.000000 1.000000 0.000000
vn 0.000000 1.000000 0.000000
vn 0.783396 0.621523 0.000000
vn 0.000000 1.000000 0.000000
vn 0.000000 1.000000 0.000000
vn 0.000000 1.000000 0.000000
vn 0.000000 1.000000 0.000000
vn 0.000000 1.000000 0.000000
vn 0.000000 1.000000 0.000000
vn 0.000000 1.000000 0.000000
vn 0.000000 1.000000 0.000000
vn 0.000000 1.000000 0.000000
vn 0.000000 1.000000 0.000000
vn 0.000000 1.000000 0.000000
vn 0.000000 1.000000 0.000000
vn 0.000000 1.000000 0.000000
vn 0.000000 1.000000 0.000000
vn 0.000000 1.000000 0.000000
vn 0.000000 1.000000 0.000000
vn 0.000000 0.000000 -1.000000
vn 0.000000 0.000000 -1.000000
vn 0.000000 0.000000 -1.000000
vn 0.000000 0.000000 -1.000000
vn 0.000000 0.000000 -1.000000
vn 0.000000 0.000000 -1.000000
vn 0.000000 0.000000 -1.000000
vn 0.000000 0.000000 -1.000000
vn 0.000000 0.000000 -1.000000
vn -0.000000 0.000000 -1.000000
vn -0.000000 0.000000 -1.000000
vn 0.000000 0.000000 -1.000000
vn -0.000000 0.000000 -1.000000
vn 0.000000 0.000000 -1.000000
vn 0.000000 0.000000 -1.000000
vn -0.000000 0.000000 -1.000000
vn 0.000000 0.000000 -1.000000
vn 0.000000 0.000000 -1.000000
vn 0.000000 0.000000 -1.000000
vn 0.000000 0.000000 -1.000000
vn 0.000000 0.000000 -1.000000
vn -0.000000 0.000000 -1.000000
vn -0.000000 0.000000 -1.000000
vn 0.000000 0.000000 -1.000000
vn -0.000000 0.000000 -1.000000
vn -0.000000 0.000000 -1.000000
vn -0.000000 0.000000 -1.000000
vn -0.000000 0.000000 -1.000000
vn -0.000000 0.000000 -1.000000
vn 0.000000 0.000000 -1.000000
vn 0.000000 0.000000 -1.000000
vn -0.000000 0.000000 -1.000000
vn 0.000000 0.000000 -1.000000
vn 0.000000 0.000000 -1.000000
vn 0.000000 0.000000 -1.000000
vn 0.000000 0.000000 -1.000000
vn 0.000000 0.000000 -1.000000
vn -0.000000 0.000000 -1.000000
vn -0.000000 0.000000 -1.000000
vn 0.000000 0.000000 -1.000000
vn -0.000000 0.000000 -1.000000
vn -0.000000 0.000000 -1.000000
vn -0.000000 0.000000 -1.000000
vn -0.000000 0.000000 -1.000000
vn -0.000000 0.000000 -1.000000
vn 0.000000 0.000000 -1.000000
vn 0.000000 0.000000 -1.000000
vn -0.000000 0.000000 -1.000000
vn 0.000000 -1.000000 0.000000
vn 0.310456 -0.950588 0.000000
vn 0.310456 -0.950588 0.000000
vn 0.000000 -1.000000 0.000000
vn 0.310456 -0.950588 0.000000
vn 0.558222 -0.829692 0.000000
vn 0.558222 -0.829692 0.000000
vn 0.310456 -0.950588 0.000000
vn 0.558222 -0.829692 0.000000
vn 0.000000 -1.000000 0.000000
vn 0.000000 -1.000000 0.000000
vn 0.558222 -0.829692 0.000000
vn 0.000000 -1.000000 0.000000
vn -0.515991 -0.856594 0.000000
vn -0.515991 -0.856594 0.000000
vn 0.000000 -1.000000 0.000000
vn -0.515991 -0.856594 0.000000
vn -0.232704 -0.972548 0.000000
vn -0.232704 -0.972548 0.000000
vn -0.515991 -0.856594 0.000000
vn -0.232704 -0.972548 0.000000
vn 0.000000 -1.000000 0.000000
vn 0.000000 -1.000000 0.000000
vn -0.232704 -0.972548 0.000000
vn 0.000000 -1.000000 0.000000
vn 0.000000 -1.000000 0.000000
vn 0.000000 -1.000000 0.000000
vn 0.000000 -1.000000 0.000000
vn 0.000000 -1.000000 0.000000
vn 0.232704 -0.972548 0.000000
vn 0.232704 -0.972548 0.000000
vn 0.000000 -1.000000 0.000000
vn 0.232704 -0.972548 0.000000
vn 0.515992 -0.856594 0.000000
vn 0.515992 -0.856594 0.000000
vn 0.232704 -0.972548 0.000000
vn 0.515992 -0.856594 0.000000
vn 0.000000 -1.000000 0.000000
vn 0.000000 -1.000000 0.000000
vn 0.515992 -0.856594 0.000000
vn 0.000000 -1.000000 0.000000
vn -0.558221 -0.829692 0.000000
vn -0.558221 -0.829692 0.000000
vn 0.000000 -1.000000 0.000000
vn -0.558221 -0.829692 0.000000
vn -0.310456 -0.950588 0.000000
vn -0.310456 -0.950588 0.000000
vn -0.558221 -0.829692 0.000000
vn -0.310456 -0.950588 0.000000
vn 0.000000 -1.000000 0.000000
vn 0.000000 -1.000000 0.000000
vn -0.310456 -0.950588 0.000000
vn 1.000000 0.000000 0.000000
vn 1.000000 0.000000 0.000000
vn 1.000000 0.000000 0.000000
vn 1.000000 0.000000 0.000000
vn -1.000000 0.000000 0.000000
vn -1.000000 0.000000 0.000000
vn -1.000000 0.000000 0.000000
vn -1.000000 0.000000 0.000000
vn 0.000000 0.000000 -1.000000
vn 0.000000 0.000000 -1.000000
vn 0.000000 0.000000 -1.000000
vn 0.000000 0.000000 -1.000000
vn -0.707107 0.707107 0.000000
vn -0.707107 0.707107 0.000000
vn -0.707107 0.707107 0.000000
vn -0.707107 0.707107 0.000000
vn 0.000000 0.000000 -1.000000
vn 0.000000 0.000000 1.000000
vn 0.000000 0.000000 1.000000
s 1
g Car1Body1:CarBody
usemtl initialShadingGroup
f 1/1/1 56/4/2 55/5/3
s off
f 2/2/4 3/6/5 16/7/6 15/3/7
f 3/6/8 4/8/9 17/9/10 16/7/11
f 4/8/12 5/10/13 18/11/14 17/9/15
f 5/10/16 6/12/17 19/13/18 18/11/19
f 6/12/20 7/14/21 20/15/22 19/13/23
f 7/14/24 8/16/25 21/17/26 20/15/27
f 8/16/28 9/18/29 22/19/30 21/17/31
f 9/18/32 10/20/33 23/21/34 22/19/35
f 10/20/36 11/22/37 24/23/38 23/21/39
f 11/22/40 12/24/41 25/25/42 24/23/43
f 12/24/44 13/26/45 26/27/46 25/25/47
f 13/26/48 14/28/49 27/29/50 26/27/51
f 58/30/52 56/31/53 15/32/54 28/33/55
f 15/32/56 16/34/57 29/35/58 28/33/59
f 16/34/60 17/36/61 30/37/62 29/35/63
f 17/36/64 18/38/65 31/39/66 30/37/67
f 18/38/68 19/40/69 32/41/70 31/39/71
f 19/40/72 20/42/73 33/43/74 32/41/75
f 20/42/76 21/44/77 34/45/78 33/43/79
f 21/44/80 22/46/81 35/47/82 34/45/83
f 22/46/84 23/48/85 36/49/86 35/47/87
f 23/48/88 24/50/89 37/51/90 36/49/91
f 24/50/92 25/52/93 38/53/94 37/51/95
f 25/52/96 26/54/97 39/55/98 38/53/99
f 26/54/100 27/56/101 40/57/102 39/55/103
f 28/58/104 29/59/105 43/60/106 42/61/107
f 29/59/108 30/62/109 44/63/110 43/60/111
f 30/62/112 31/64/113 45/65/114 44/63/115
f 31/64/116 32/66/117 46/67/118 45/65/119
f 32/66/120 33/68/121 47/69/122 46/67/123
f 33/68/124 34/70/125 48/71/126 47/69/127
f 34/70/128 35/72/129 49/73/130 48/71/131
f 35/72/132 36/74/133 50/75/134 49/73/135
f 36/74/136 37/76/137 51/77/138 50/75/139
f 37/76/140 38/78/141 52/79/142 51/77/143
f 38/78/144 39/80/145 53/81/146 52/79/147
f 39/80/148 40/82/149 54/83/150 53/81/151
f 41/84/152 42/85/153 2/86/154 1/87/155
f 42/85/156 43/88/157 3/89/158 2/86/159
f 43/88/160 44/90/161 4/91/162 3/89/163
f 44/90/164 45/92/165 5/93/166 4/91/167
f 45/92/168 46/94/169 6/95/170 5/93/171
f 46/94/172 47/96/173 7/97/174 6/95/175
f 47/96/176 48/98/177 8/99/178 7/97/179
f 48/98/180 49/100/181 9/101/182 8/99/183
f 49/100/184 50/102/185 10/103/186 9/101/187
f 50/102/188 51/104/189 11/105/190 10/103/191
f 51/104/192 52/106/193 12/107/194 11/105/195
f 52/106/196 53/108/197 13/109/198 12/107/199
f 53/108/200 54/110/201 14/111/202 13/109/203
f 14/112/204 54/113/205 40/114/206 27/115/207
f 41/116/208 1/117/209 55/118/210 57/119/211
s 2
f 41/122/212 58/121/213 28/58/214 42/61/215
s off
f 55/118/216 56/123/217 58/124/218 57/119/219
s 2
f 57/120/220 58/121/213 41/122/212
s 1
f 1/1/1 2/2/221 15/3/222 56/4/2
