# This file uses centimeters as units for non-parametric coordinates.

mtllib Car1Body.mtl
g default
v -3.284746 0.759704 1.320604
v -2.779400 0.759704 1.320604
v -2.568179 0.993731 1.320604
v -2.291629 1.087880 1.320604
v -1.975318 0.993731 1.320604
v -1.746827 0.759704 1.320604
v -0.997246 0.759704 1.320604
v 0.997246 0.759704 1.320604
v 1.746827 0.759704 1.320604
v 1.975318 0.993731 1.320604
v 2.291629 1.087880 1.320604
v 2.568179 0.993731 1.320604
v 2.779400 0.759704 1.320604
v 3.284745 0.759704 1.320604
v -2.779400 2.424885 1.320604
v -2.568179 2.424885 1.320604
v -2.291629 2.424885 1.320604
v -1.975318 2.424885 1.320604
v -1.746827 2.424885 1.320604
v -0.997246 3.657693 1.320604
v 0.997246 3.657693 1.320604
v 1.746827 2.424885 1.320604
v 1.975318 2.424885 1.320604
v 2.291629 2.424885 1.320604
v 2.568179 2.424885 1.320604
v 2.779400 2.424885 1.320604
v 3.284745 2.424885 1.320604
v -2.779400 2.424885 -1.320604
v -2.568179 2.424885 -1.320604
v -2.291629 2.424885 -1.320604
v -1.975318 2.424885 -1.320604
v -1.746827 2.424885 -1.320604
v -0.997246 3.657693 -1.320604
v 0.997246 3.657693 -1.320604
v 1.746827 2.424885 -1.320604
v 1.975318 2.424885 -1.320604
v 2.291629 2.424885 -1.320604
v 2.568179 2.424885 -1.320604
v 2.779400 2.424885 -1.320604
v 3.284745 2.424885 -1.320604
v -3.284746 0.759704 -1.320604
v -2.779400 0.759704 -1.320604
v -2.568179 0.993731 -1.320604
v -2.291629 1.087880 -1.320604
v -1.975318 0.993731 -1.320604
v -1.746827 0.759704 -1.320604
v -0.997246 0.759704 -1.320604
v 0.997246 0.759704 -1.320604
v 1.746827 0.759704 -1.320604
v 1.975318 0.993731 -1.320604
v 2.291629 1.087880 -1.320604
v 2.568179 0.993731 -1.320604
v 2.779400 0.759704 -1.320604
v 3.284745 0.759704 -1.320604
v -3.284746 1.970120 1.320604
v -2.829980 2.424885 1.320604
v -3.284746 1.970120 -1.320604
v -2.829980 2.424885 -1.320604
vt 0.871309 0.439214
vt 0.871309 0.634864
vt 0.607039 0.634864
vt 0.607039 0.439214
vt 0.871309 0.715096
vt 0.871309 0.910747
vt 0.607039 0.910746
vt 0.607039 0.715096
vt 0.437807 0.729960
vt 0.400667 0.729960
vt 0.400667 0.465690
vt 0.437807 0.465690
vt 0.385725 0.729960
vt 0.385725 0.465690
vt 0.370783 0.729960
vt 0.333642 0.729960
vt 0.333642 0.465690
vt 0.370783 0.465690
vt 0.193104 0.729960
vt 0.155963 0.729960
vt 0.155963 0.465690
vt 0.193104 0.465690
vt 0.141021 0.729960
vt 0.141021 0.465690
vt 0.126080 0.729960
vt 0.088939 0.729960
vt 0.088939 0.465690
vt 0.126079 0.465690
vt 0.001886 0.733738
vt 0.266155 0.733738
vt 0.266155 0.998008
vt 0.001886 0.998008
vt 0.273260 0.733738
vt 0.537530 0.733738
vt 0.537530 0.925835
vt 0.273260 0.925835
vt 0.537530 0.998008
vt 0.273260 0.998008
vt 0.607039 0.395642
vt 0.871309 0.395642
vt 0.871309 0.397676
vt 0.607039 0.397676
vt 0.871309 0.406173
vt 0.607039 0.406173
vt 0.871309 0.417298
vt 0.607039 0.417298
vt 0.871309 0.430022
vt 0.607039 0.430022
vt 0.871309 0.919938
vt 0.607039 0.919938
vt 0.871309 0.932662
vt 0.607039 0.932662
vt 0.871309 0.943787
vt 0.607039 0.943787
vt 0.871308 0.952284
vt 0.607039 0.952284
vt 0.871308 0.972612
vt 0.607039 0.972612
vt 0.458136 0.729960
vt 0.458136 0.465690
vt 0.303489 0.729960
vt 0.303489 0.465690
vt 0.223257 0.729960
vt 0.223257 0.465690
vt 0.068610 0.729960
vt 0.068610 0.465690
vt 0.001886 0.001992
vt 0.022214 0.001992
vt 0.022214 0.266262
vt 0.020179 0.266262
vt 0.001886 0.194089
vt 0.030711 0.039133
vt 0.030711 0.266262
vt 0.041835 0.054075
vt 0.041836 0.266262
vt 0.054560 0.039133
vt 0.054560 0.266262
vt 0.063751 0.001992
vt 0.063751 0.266262
vt 0.093904 0.001992
vt 0.093904 0.461912
vt 0.174136 0.001992
vt 0.174136 0.461912
vt 0.204290 0.001992
vt 0.204290 0.266262
vt 0.213481 0.039133
vt 0.213481 0.266262
vt 0.226205 0.054075
vt 0.226205 0.266262
vt 0.237330 0.039133
vt 0.237330 0.266262
vt 0.245827 0.001992
vt 0.245827 0.266262
vt 0.266155 0.001992
vt 0.266155 0.266262
vt 0.517201 0.266262
vt 0.508704 0.266262
vt 0.508704 0.039133
vt 0.517201 0.001992
vt 0.497580 0.266262
vt 0.497580 0.054075
vt 0.537530 0.194089
vt 0.519236 0.266262
vt 0.537530 0.001992
vt 0.484856 0.266262
vt 0.484856 0.039133
vt 0.475664 0.266262
vt 0.475664 0.001992
vt 0.445511 0.461912
vt 0.445511 0.001992
vt 0.365279 0.461912
vt 0.365279 0.001992
vt 0.335126 0.266262
vt 0.335126 0.001992
vt 0.325934 0.266262
vt 0.325934 0.039133
vt 0.313210 0.266262
vt 0.313210 0.054075
vt 0.302085 0.266262
vt 0.302085 0.039133
vt 0.293588 0.266262
vt 0.293588 0.001992
vt 0.273260 0.266262
vt 0.273260 0.001992
vn 0.000000 0.000000 1.000000
vn 0.000000 0.000000 1.000000
vn 0.000000 0.000000 1.000000
vn 0.000000 0.000000 1.000000
vn 0.000000 0.000000 1.000000
vn 0.000000 0.000000 1.000000
vn 0.000000 0.000000 1.000000
vn 0.000000 0.000000 1.000000
vn 0.000000 0.000000 1.000000
vn -0.000000 0.000000 1.000000
vn -0.000000 0.000000 1.000000
vn 0.000000 0.000000 1.000000
vn 0.000000 0.000000 1.000000
vn 0.000000 0.000000 1.000000
vn 0.000000 0.000000 1.000000
vn -0.000000 0.000000 1.000000
vn -0.000000 0.000000 1.000000
vn -0.000000 0.000000 1.000000
vn -0.000000 0.000000 1.000000
vn 0.000000 0.000000 1.000000
vn 0.000000 0.000000 1.000000
vn 0.000000 0.000000 1.000000
vn 0.000000 0.000000 1.000000
vn -0.000000 0.000000 1.000000
vn -0.000000 0.000000 1.000000
vn -0.000000 0.000000 1.000000
vn -0.000000 0.000000 1.000000
vn 0.000000 0.000000 1.000000
vn 0.000000 0.000000 1.000000
vn 0.000000 1.000000 0.000000
vn 0.000000 1.000000 0.000000
vn 0.000000 1.000000 0.000000
vn 0.000000 1.000000 0.000000
vn 0.000000 1.000000 0.000000
vn 0.000000 1.000000 0.000000
vn 0.000000 1.000000 0.000000
vn 0.000000 1.000000 0.000000
vn 0.000000 1.000000 0.000000
vn 0.000000 1.000000 0.000000
vn -0.783396 0.621523 0.000000
vn -0.783396 0.621523 0.000000
vn -0.409805 0.912173 0.000000
vn -0.409805 0.912173 0.000000
vn 0.409805 0.912173 0.000000
vn 0.409805 0.912173 0.000000
vn 0.783396 0.621523 0.000000
vn 0.783396 0.621523 0.000000
vn 0.000000 1.000000 0.000000
vn 0.000000 1.000000 0.000000
vn 0.000000 1.000000 0.000000
vn 0.000000 1.000000 0.000000
vn 0.000000 1.000000 0.000000
vn 0.000000 1.000000 0.000000
vn 0.000000 1.000000 0.000000
vn 0.000000 1.000000 0.000000
vn 0.000000 1.000000 0.000000
vn 0.000000 1.000000 0.000000
vn 0.000000 0.000000 -1.000000
vn 0.000000 0.000000 -1.000000
vn 0.000000 0.000000 -1.000000
vn 0.000000 0.000000 -1.000000
vn 0.000000 0.000000 -1.000000
vn 0.000000 0.000000 -1.000000
vn -0.000000 0.000000 -1.000000
vn -0.000000 0.000000 -1.000000
vn 0.000000 0.000000 -1.000000
vn 0.000000 0.000000 -1.000000
vn 0.000000 0.000000 -1.000000
vn 0.000000 0.000000 -1.000000
vn -0.000000 0.000000 -1.000000
vn -0.000000 0.000000 -1.000000
vn -0.000000 0.000000 -1.000000
vn -0.000000 0.000000 -1.000000
vn 0.000000 0.000000 -1.000000
vn 0.000000 0.000000 -1.000000
vn 0.000000 0.000000 -1.000000
vn 0.000000 0.000000 -1.000000
vn -0.000000 0.000000 -1.000000
vn -0.000000 0.000000 -1.000000
vn -0.000000 0.000000 -1.000000
vn -0.000000 0.000000 -1.000000
vn 0.000000 0.000000 -1.000000
vn 0.000000 0.000000 -1.000000
vn 0.000000 -1.000000 0.000000
vn 0.310456 -0.950588 0.000000
vn 0.310456 -0.950588 0.000000
vn 0.000000 -1.000000 0.000000
vn 0.558222 -0.829692 0.000000
vn 0.558222 -0.829692 0.000000
vn 0.000000 -1.000000 -0.000000
vn 0.000000 -1.000000 -0.000000
vn -0.515991 -0.856594 -0.000000
vn -0.515991 -0.856594 -0.000000
vn -0.232704 -0.972548 0.000000
vn -0.232704 -0.972548 0.000000
vn 0.000000 -1.000000 0.000000
vn 0.000000 -1.000000 0.000000
vn 0.000000 -1.000000 0.000000
vn 0.000000 -1.000000 0.000000
vn 0.232704 -0.972548 0.000000
vn 0.232704 -0.972548 0.000000
vn 0.515992 -0.856594 0.000000
vn 0.515992 -0.856594 0.000000
vn 0.000000 -1.000000 0.000000
vn 0.000000 -1.000000 0.000000
vn -0.558221 -0.829692 0.000000
vn -0.558221 -0.829692 0.000000
vn -0.310456 -0.950588 0.000000
vn -0.310456 -0.950588 0.000000
vn 0.000000 -1.000000 0.000000
vn 0.000000 -1.000000 0.000000
vn 1.000000 0.000000 0.000000
vn 1.000000 0.000000 0.000000
vn 1.000000 0.000000 0.000000
vn 1.000000 0.000000 0.000000
vn -1.000000 0.000000 0.000000
vn -1.000000 0.000000 0.000000
vn -1.000000 0.000000 0.000000
vn -1.000000 0.000000 0.000000
vn 0.000000 0.000000 -1.000000
vn 0.000000 0.000000 -1.000000
vn 0.000000 0.000000 -1.000000
vn -0.707107 0.707107 0.000000
vn -0.707107 0.707107 0.000000
vn -0.707107 0.707107 0.000000
vn -0.707107 0.707107 0.000000
s 1
g CarBody
usemtl initialShadingGroup
f 1/67/1 2/68/2 15/69/3 56/70/4 55/71/5
f 2/68/2 3/72/6 16/73/7 15/69/3
f 3/72/6 4/74/8 17/75/9 16/73/7
f 4/74/8 5/76/10 18/77/11 17/75/9
f 5/76/10 6/78/12 19/79/13 18/77/11
f 6/78/12 7/80/14 20/81/15 19/79/13
f 7/80/14 8/82/16 21/83/17 20/81/15
f 8/82/16 9/84/18 22/85/19 21/83/17
f 9/84/18 10/86/20 23/87/21 22/85/19
f 10/86/20 11/88/22 24/89/23 23/87/21
f 11/88/22 12/90/24 25/91/25 24/89/23
f 12/90/24 13/92/26 26/93/27 25/91/25
f 13/92/26 14/94/28 27/95/29 26/93/27
s 2
f 58/39/30 56/40/31 15/41/32 28/42/33
f 15/41/32 16/43/34 29/44/35 28/42/33
f 16/43/34 17/45/36 30/46/37 29/44/35
f 17/45/36 18/47/38 31/48/39 30/46/37
f 18/47/38 19/1/40 32/4/41 31/48/39
f 19/1/40 20/2/42 33/3/43 32/4/41
f 20/2/42 21/5/44 34/8/45 33/3/43
f 21/5/44 22/6/46 35/7/47 34/8/45
f 22/6/46 23/49/48 36/50/49 35/7/47
f 23/49/48 24/51/50 37/52/51 36/50/49
f 24/51/50 25/53/52 38/54/53 37/52/51
f 25/53/52 26/55/54 39/56/55 38/54/53
f 26/55/54 27/57/56 40/58/57 39/56/55
s 3
f 28/96/58 29/97/59 43/98/60 42/99/61
f 29/97/59 30/100/62 44/101/63 43/98/60
f 30/100/62 31/105/64 45/106/65 44/101/63
f 31/105/64 32/107/66 46/108/67 45/106/65
f 32/107/66 33/109/68 47/110/69 46/108/67
f 33/109/68 34/111/70 48/112/71 47/110/69
f 34/111/70 35/113/72 49/114/73 48/112/71
f 35/113/72 36/115/74 50/116/75 49/114/73
f 36/115/74 37/117/76 51/118/77 50/116/75
f 37/117/76 38/119/78 52/120/79 51/118/77
f 38/119/78 39/121/80 53/122/81 52/120/79
f 39/121/80 40/123/82 54/124/83 53/122/81
s 4
f 41/59/84 42/9/85 2/12/86 1/60/87
f 42/9/85 43/10/88 3/11/89 2/12/86
f 43/10/88 44/13/90 4/14/91 3/11/89
f 44/13/90 45/15/92 5/18/93 4/14/91
f 45/15/92 46/16/94 6/17/95 5/18/93
f 46/16/94 47/61/96 7/62/97 6/17/95
f 47/61/96 48/63/98 8/64/99 7/62/97
f 48/63/98 49/19/100 9/22/101 8/64/99
f 49/19/100 50/20/102 10/21/103 9/22/101
f 50/20/102 51/23/104 11/24/105 10/21/103
f 51/23/104 52/25/106 12/28/107 11/24/105
f 52/25/106 53/26/108 13/27/109 12/28/107
f 53/26/108 54/65/110 14/66/111 13/27/109
s off
f 14/29/112 54/30/113 40/31/114 27/32/115
f 41/33/116 1/34/117 55/35/118 57/36/119
s 3
f 57/102/120 58/103/121 28/96/58 42/99/61 41/104/122
s off
f 55/35/123 56/37/124 58/38/125 57/36/126
