# This file uses centimeters as units for non-parametric coordinates.

mtllib Car2FWheels.mtl
g default
v -2.196476 0.990230 1.198240
v -2.307439 1.208008 1.198240
v -2.480269 1.380837 1.198240
v -2.698047 1.491801 1.198240
v -2.939455 1.530036 1.198240
v -3.180864 1.491801 1.198240
v -3.398641 1.380837 1.198240
v -3.571471 1.208008 1.198240
v -3.682434 0.990230 1.198240
v -3.720669 0.748822 1.198240
v -3.682434 0.507413 1.198240
v -3.571471 0.289636 1.198240
v -3.398641 0.116806 1.198240
v -3.180864 0.005843 1.198240
v -2.939455 -0.032392 1.198240
v -2.698047 0.005843 1.198240
v -2.480269 0.116806 1.198240
v -2.307440 0.289636 1.198240
v -2.196477 0.507413 1.198240
v -2.158241 0.748822 1.198240
v -2.196476 0.990230 1.818697
v -2.307439 1.208008 1.818697
v -2.480269 1.380837 1.818697
v -2.698047 1.491801 1.818697
v -2.939455 1.530036 1.818697
v -3.180864 1.491801 1.818697
v -3.398641 1.380837 1.818697
v -3.571471 1.208008 1.818697
v -3.682434 0.990230 1.818697
v -3.720669 0.748822 1.818697
v -3.682434 0.507413 1.818697
v -3.571471 0.289636 1.818697
v -3.398641 0.116806 1.818697
v -3.180864 0.005843 1.818697
v -2.939455 -0.032392 1.818697
v -2.698047 0.005843 1.818697
v -2.480269 0.116806 1.818697
v -2.307440 0.289636 1.818697
v -2.196477 0.507413 1.818697
v -2.158241 0.748822 1.818697
v -2.939455 0.748822 1.198240
v -2.939455 0.748822 1.818697
vt 0.850630 0.954102
vt 0.881144 0.938554
vt 0.905360 0.914338
vt 0.920907 0.883825
vt 0.926265 0.850000
vt 0.920907 0.816175
vt 0.905360 0.785662
vt 0.881144 0.761446
vt 0.850630 0.745898
vt 0.816806 0.740541
vt 0.782981 0.745898
vt 0.752468 0.761446
vt 0.728252 0.785662
vt 0.712704 0.816175
vt 0.707347 0.850000
vt 0.712704 0.883825
vt 0.728251 0.914338
vt 0.752467 0.938554
vt 0.782981 0.954102
vt 0.816806 0.959459
vt 0.982780 0.529383
vt 0.982780 0.536445
vt 0.982780 0.543507
vt 0.982780 0.550568
vt 0.982780 0.557630
vt 0.982780 0.564692
vt 0.982780 0.571753
vt 0.982780 0.578815
vt 0.982780 0.585877
vt 0.982780 0.592938
vt 0.982780 0.600000
vt 0.982780 0.607062
vt 0.982780 0.614123
vt 0.982780 0.621185
vt 0.982780 0.628246
vt 0.982780 0.635308
vt 0.982780 0.642370
vt 0.982780 0.649431
vt 0.982780 0.656493
vt 0.982780 0.663555
vt 0.982780 0.670616
vt 0.770400 0.529383
vt 0.770400 0.536445
vt 0.770400 0.543507
vt 0.770400 0.550568
vt 0.770400 0.557630
vt 0.770400 0.564692
vt 0.770400 0.571753
vt 0.770400 0.578815
vt 0.770400 0.585877
vt 0.770400 0.592938
vt 0.770400 0.600000
vt 0.770400 0.607062
vt 0.770400 0.614123
vt 0.770400 0.621185
vt 0.770400 0.628246
vt 0.770400 0.635308
vt 0.770400 0.642370
vt 0.770400 0.649431
vt 0.770400 0.656493
vt 0.770400 0.663555
vt 0.770400 0.670616
vt 0.617019 0.954101
vt 0.647532 0.938554
vt 0.671748 0.914338
vt 0.687296 0.883824
vt 0.692653 0.850000
vt 0.687296 0.816175
vt 0.671748 0.785661
vt 0.647532 0.761446
vt 0.617019 0.745898
vt 0.583194 0.740541
vt 0.549369 0.745898
vt 0.518856 0.761446
vt 0.494640 0.785662
vt 0.479092 0.816175
vt 0.473735 0.850000
vt 0.479093 0.883825
vt 0.494640 0.914338
vt 0.518856 0.938554
vt 0.549369 0.954102
vt 0.583194 0.959459
vt 0.821184 0.850000
vt 0.587573 0.850000
vn 0.951057 0.309016 -0.000000
vn 0.809017 0.587785 -0.000000
vn 0.809017 0.587785 -0.000000
vn 0.951057 0.309016 -0.000000
vn 0.587785 0.809017 -0.000000
vn 0.587785 0.809017 -0.000000
vn 0.309017 0.951057 -0.000000
vn 0.309017 0.951057 -0.000000
vn -0.000000 1.000000 -0.000000
vn -0.000000 1.000000 -0.000000
vn -0.309017 0.951056 -0.000000
vn -0.309017 0.951056 -0.000000
vn -0.587785 0.809017 -0.000000
vn -0.587785 0.809017 -0.000000
vn -0.809017 0.587785 -0.000000
vn -0.809017 0.587785 -0.000000
vn -0.951057 0.309017 -0.000000
vn -0.951057 0.309017 -0.000000
vn -1.000000 0.000000 0.000000
vn -1.000000 0.000000 0.000000
vn -0.951057 -0.309017 0.000000
vn -0.951057 -0.309017 0.000000
vn -0.809017 -0.587785 0.000000
vn -0.809017 -0.587785 0.000000
vn -0.587785 -0.809017 0.000000
vn -0.587785 -0.809017 0.000000
vn -0.309017 -0.951057 0.000000
vn -0.309017 -0.951057 0.000000
vn 0.000000 -1.000000 0.000000
vn 0.000000 -1.000000 0.000000
vn 0.309017 -0.951057 0.000000
vn 0.309017 -0.951057 0.000000
vn 0.587785 -0.809017 0.000000
vn 0.587785 -0.809017 0.000000
vn 0.809017 -0.587785 0.000000
vn 0.809017 -0.587785 0.000000
vn 0.951057 -0.309017 0.000000
vn 0.951057 -0.309017 0.000000
vn 1.000000 -0.000001 0.000000
vn 1.000000 -0.000001 0.000000
vn 0.000000 -0.000000 -1.000000
vn 0.000000 -0.000000 -1.000000
vn 0.000000 -0.000000 -1.000000
vn 0.000000 -0.000000 -1.000000
vn 0.000000 -0.000000 -1.000000
vn 0.000000 -0.000000 -1.000000
vn 0.000000 -0.000000 -1.000000
vn 0.000000 -0.000000 -1.000000
vn 0.000000 -0.000000 -1.000000
vn 0.000000 -0.000000 -1.000000
vn 0.000000 -0.000000 -1.000000
vn 0.000000 -0.000000 -1.000000
vn 0.000000 -0.000000 -1.000000
vn 0.000000 -0.000000 -1.000000
vn 0.000000 -0.000000 -1.000000
vn 0.000000 -0.000000 -1.000000
vn 0.000000 -0.000000 -1.000000
vn 0.000000 -0.000000 -1.000000
vn 0.000000 -0.000000 -1.000000
vn 0.000000 -0.000000 -1.000000
vn 0.000000 -0.000000 -1.000000
vn 0.000000 0.000000 1.000000
vn 0.000000 0.000000 1.000000
vn 0.000000 0.000000 1.000000
vn 0.000000 0.000000 1.000000
vn 0.000000 0.000000 1.000000
vn 0.000000 0.000000 1.000000
vn 0.000000 0.000000 1.000000
vn 0.000000 0.000000 1.000000
vn 0.000000 0.000000 1.000000
vn 0.000000 0.000000 1.000000
vn 0.000000 0.000000 1.000000
vn 0.000000 0.000000 1.000000
vn 0.000000 0.000000 1.000000
vn 0.000000 0.000000 1.000000
vn 0.000000 0.000000 1.000000
vn 0.000000 0.000000 1.000000
vn 0.000000 0.000000 1.000000
vn 0.000000 0.000000 1.000000
vn 0.000000 0.000000 1.000000
vn 0.000000 0.000000 1.000000
vn 0.000000 0.000000 1.000000
s 1
g MLWheel
usemtl initialShadingGroup
f 1/21/1 2/22/2 22/43/3 21/42/4
f 2/22/2 3/23/5 23/44/6 22/43/3
f 3/23/5 4/24/7 24/45/8 23/44/6
f 4/24/7 5/25/9 25/46/10 24/45/8
f 5/25/9 6/26/11 26/47/12 25/46/10
f 6/26/11 7/27/13 27/48/14 26/47/12
f 7/27/13 8/28/15 28/49/16 27/48/14
f 8/28/15 9/29/17 29/50/18 28/49/16
f 9/29/17 10/30/19 30/51/20 29/50/18
f 10/30/19 11/31/21 31/52/22 30/51/20
f 11/31/21 12/32/23 32/53/24 31/52/22
f 12/32/23 13/33/25 33/54/26 32/53/24
f 13/33/25 14/34/27 34/55/28 33/54/26
f 14/34/27 15/35/29 35/56/30 34/55/28
f 15/35/29 16/36/31 36/57/32 35/56/30
f 16/36/31 17/37/33 37/58/34 36/57/32
f 17/37/33 18/38/35 38/59/36 37/58/34
f 18/38/35 19/39/37 39/60/38 38/59/36
f 19/39/37 20/40/39 40/61/40 39/60/38
f 20/40/39 1/41/1 21/62/4 40/61/40
s 2
f 2/2/41 1/1/42 41/83/43
f 3/3/44 2/2/41 41/83/43
f 4/4/45 3/3/44 41/83/43
f 5/5/46 4/4/45 41/83/43
f 6/6/47 5/5/46 41/83/43
f 7/7/48 6/6/47 41/83/43
f 8/8/49 7/7/48 41/83/43
f 9/9/50 8/8/49 41/83/43
f 10/10/51 9/9/50 41/83/43
f 11/11/52 10/10/51 41/83/43
f 12/12/53 11/11/52 41/83/43
f 13/13/54 12/12/53 41/83/43
f 14/14/55 13/13/54 41/83/43
f 15/15/56 14/14/55 41/83/43
f 16/16/57 15/15/56 41/83/43
f 17/17/58 16/16/57 41/83/43
f 18/18/59 17/17/58 41/83/43
f 19/19/60 18/18/59 41/83/43
f 20/20/61 19/19/60 41/83/43
f 1/1/42 20/20/61 41/83/43
s 3
f 21/81/62 22/80/63 42/84/64
f 22/80/63 23/79/65 42/84/64
f 23/79/65 24/78/66 42/84/64
f 24/78/66 25/77/67 42/84/64
f 25/77/67 26/76/68 42/84/64
f 26/76/68 27/75/69 42/84/64
f 27/75/69 28/74/70 42/84/64
f 28/74/70 29/73/71 42/84/64
f 29/73/71 30/72/72 42/84/64
f 30/72/72 31/71/73 42/84/64
f 31/71/73 32/70/74 42/84/64
f 32/70/74 33/69/75 42/84/64
f 33/69/75 34/68/76 42/84/64
f 34/68/76 35/67/77 42/84/64
f 35/67/77 36/66/78 42/84/64
f 36/66/78 37/65/79 42/84/64
f 37/65/79 38/64/80 42/84/64
f 38/64/80 39/63/81 42/84/64
f 39/63/81 40/82/82 42/84/64
f 40/82/82 21/81/62 42/84/64
g default
v -2.196476 0.990230 -1.788245
v -2.307439 1.208008 -1.788245
v -2.480269 1.380837 -1.788245
v -2.698047 1.491801 -1.788245
v -2.939455 1.530036 -1.788245
v -3.180864 1.491801 -1.788245
v -3.398641 1.380837 -1.788245
v -3.571471 1.208008 -1.788245
v -3.682434 0.990230 -1.788245
v -3.720669 0.748822 -1.788245
v -3.682434 0.507413 -1.788245
v -3.571471 0.289636 -1.788245
v -3.398641 0.116806 -1.788245
v -3.180864 0.005843 -1.788245
v -2.939455 -0.032392 -1.788245
v -2.698047 0.005843 -1.788245
v -2.480269 0.116806 -1.788245
v -2.307440 0.289636 -1.788245
v -2.196477 0.507413 -1.788245
v -2.158241 0.748822 -1.788245
v -2.196476 0.990230 -1.167788
v -2.307439 1.208008 -1.167788
v -2.480269 1.380837 -1.167788
v -2.698047 1.491801 -1.167788
v -2.939455 1.530036 -1.167788
v -3.180864 1.491801 -1.167788
v -3.398641 1.380837 -1.167788
v -3.571471 1.208008 -1.167788
v -3.682434 0.990230 -1.167788
v -3.720669 0.748822 -1.167788
v -3.682434 0.507413 -1.167788
v -3.571471 0.289636 -1.167788
v -3.398641 0.116806 -1.167788
v -3.180864 0.005843 -1.167788
v -2.939455 -0.032392 -1.167788
v -2.698047 0.005843 -1.167788
v -2.480269 0.116806 -1.167788
v -2.307440 0.289636 -1.167788
v -2.196477 0.507413 -1.167788
v -2.158241 0.748822 -1.167788
v -2.939455 0.748822 -1.788245
v -2.939455 0.748822 -1.167788
vt 0.850630 0.954102
vt 0.881144 0.938554
vt 0.905360 0.914338
vt 0.920907 0.883825
vt 0.926265 0.850000
vt 0.920907 0.816175
vt 0.905360 0.785662
vt 0.881144 0.761446
vt 0.850630 0.745898
vt 0.816806 0.740541
vt 0.782981 0.745898
vt 0.752468 0.761446
vt 0.728252 0.785662
vt 0.712704 0.816175
vt 0.707347 0.850000
vt 0.712704 0.883825
vt 0.728251 0.914338
vt 0.752467 0.938554
vt 0.782981 0.954102
vt 0.816806 0.959459
vt 0.982780 0.529383
vt 0.982780 0.536445
vt 0.982780 0.543507
vt 0.982780 0.550568
vt 0.982780 0.557630
vt 0.982780 0.564692
vt 0.982780 0.571753
vt 0.982780 0.578815
vt 0.982780 0.585877
vt 0.982780 0.592938
vt 0.982780 0.600000
vt 0.982780 0.607062
vt 0.982780 0.614123
vt 0.982780 0.621185
vt 0.982780 0.628246
vt 0.982780 0.635308
vt 0.982780 0.642370
vt 0.982780 0.649431
vt 0.982780 0.656493
vt 0.982780 0.663555
vt 0.982780 0.670616
vt 0.770400 0.529383
vt 0.770400 0.536445
vt 0.770400 0.543507
vt 0.770400 0.550568
vt 0.770400 0.557630
vt 0.770400 0.564692
vt 0.770400 0.571753
vt 0.770400 0.578815
vt 0.770400 0.585877
vt 0.770400 0.592938
vt 0.770400 0.600000
vt 0.770400 0.607062
vt 0.770400 0.614123
vt 0.770400 0.621185
vt 0.770400 0.628246
vt 0.770400 0.635308
vt 0.770400 0.642370
vt 0.770400 0.649431
vt 0.770400 0.656493
vt 0.770400 0.663555
vt 0.770400 0.670616
vt 0.617019 0.954101
vt 0.647532 0.938554
vt 0.671748 0.914338
vt 0.687296 0.883824
vt 0.692653 0.850000
vt 0.687296 0.816175
vt 0.671748 0.785661
vt 0.647532 0.761446
vt 0.617019 0.745898
vt 0.583194 0.740541
vt 0.549369 0.745898
vt 0.518856 0.761446
vt 0.494640 0.785662
vt 0.479092 0.816175
vt 0.473735 0.850000
vt 0.479093 0.883825
vt 0.494640 0.914338
vt 0.518856 0.938554
vt 0.549369 0.954102
vt 0.583194 0.959459
vt 0.821184 0.850000
vt 0.587573 0.850000
vn 0.951057 0.309016 -0.000000
vn 0.809017 0.587785 -0.000000
vn 0.809017 0.587785 -0.000000
vn 0.951057 0.309016 -0.000000
vn 0.587785 0.809017 -0.000000
vn 0.587785 0.809017 -0.000000
vn 0.309017 0.951057 -0.000000
vn 0.309017 0.951057 -0.000000
vn -0.000000 1.000000 -0.000000
vn -0.000000 1.000000 -0.000000
vn -0.309017 0.951056 -0.000000
vn -0.309017 0.951056 -0.000000
vn -0.587785 0.809017 -0.000000
vn -0.587785 0.809017 -0.000000
vn -0.809017 0.587785 -0.000000
vn -0.809017 0.587785 -0.000000
vn -0.951057 0.309017 -0.000000
vn -0.951057 0.309017 -0.000000
vn -1.000000 0.000000 0.000000
vn -1.000000 0.000000 0.000000
vn -0.951057 -0.309017 0.000000
vn -0.951057 -0.309017 0.000000
vn -0.809017 -0.587785 0.000000
vn -0.809017 -0.587785 0.000000
vn -0.587785 -0.809017 0.000000
vn -0.587785 -0.809017 0.000000
vn -0.309017 -0.951057 0.000000
vn -0.309017 -0.951057 0.000000
vn 0.000000 -1.000000 0.000000
vn 0.000000 -1.000000 0.000000
vn 0.309017 -0.951057 0.000000
vn 0.309017 -0.951057 0.000000
vn 0.587785 -0.809017 0.000000
vn 0.587785 -0.809017 0.000000
vn 0.809017 -0.587785 0.000000
vn 0.809017 -0.587785 0.000000
vn 0.951057 -0.309017 0.000000
vn 0.951057 -0.309017 0.000000
vn 1.000000 -0.000001 0.000000
vn 1.000000 -0.000001 0.000000
vn 0.000000 -0.000000 -1.000000
vn 0.000000 -0.000000 -1.000000
vn 0.000000 -0.000000 -1.000000
vn 0.000000 -0.000000 -1.000000
vn 0.000000 -0.000000 -1.000000
vn 0.000000 -0.000000 -1.000000
vn 0.000000 -0.000000 -1.000000
vn 0.000000 -0.000000 -1.000000
vn 0.000000 -0.000000 -1.000000
vn 0.000000 -0.000000 -1.000000
vn 0.000000 -0.000000 -1.000000
vn 0.000000 -0.000000 -1.000000
vn 0.000000 -0.000000 -1.000000
vn 0.000000 -0.000000 -1.000000
vn 0.000000 -0.000000 -1.000000
vn 0.000000 -0.000000 -1.000000
vn 0.000000 -0.000000 -1.000000
vn 0.000000 -0.000000 -1.000000
vn 0.000000 -0.000000 -1.000000
vn 0.000000 -0.000000 -1.000000
vn 0.000000 -0.000000 -1.000000
vn 0.000000 0.000000 1.000000
vn 0.000000 0.000000 1.000000
vn 0.000000 0.000000 1.000000
vn 0.000000 0.000000 1.000000
vn 0.000000 0.000000 1.000000
vn 0.000000 0.000000 1.000000
vn 0.000000 0.000000 1.000000
vn 0.000000 0.000000 1.000000
vn 0.000000 0.000000 1.000000
vn 0.000000 0.000000 1.000000
vn 0.000000 0.000000 1.000000
vn 0.000000 0.000000 1.000000
vn 0.000000 0.000000 1.000000
vn 0.000000 0.000000 1.000000
vn 0.000000 0.000000 1.000000
vn 0.000000 0.000000 1.000000
vn 0.000000 0.000000 1.000000
vn 0.000000 0.000000 1.000000
vn 0.000000 0.000000 1.000000
vn 0.000000 0.000000 1.000000
vn 0.000000 0.000000 1.000000
s 1
g BRWheel
usemtl initialShadingGroup
f 43/105/83 44/106/84 64/127/85 63/126/86
f 44/106/84 45/107/87 65/128/88 64/127/85
f 45/107/87 46/108/89 66/129/90 65/128/88
f 46/108/89 47/109/91 67/130/92 66/129/90
f 47/109/91 48/110/93 68/131/94 67/130/92
f 48/110/93 49/111/95 69/132/96 68/131/94
f 49/111/95 50/112/97 70/133/98 69/132/96
f 50/112/97 51/113/99 71/134/100 70/133/98
f 51/113/99 52/114/101 72/135/102 71/134/100
f 52/114/101 53/115/103 73/136/104 72/135/102
f 53/115/103 54/116/105 74/137/106 73/136/104
f 54/116/105 55/117/107 75/138/108 74/137/106
f 55/117/107 56/118/109 76/139/110 75/138/108
f 56/118/109 57/119/111 77/140/112 76/139/110
f 57/119/111 58/120/113 78/141/114 77/140/112
f 58/120/113 59/121/115 79/142/116 78/141/114
f 59/121/115 60/122/117 80/143/118 79/142/116
f 60/122/117 61/123/119 81/144/120 80/143/118
f 61/123/119 62/124/121 82/145/122 81/144/120
f 62/124/121 43/125/83 63/146/86 82/145/122
s 2
f 44/86/123 43/85/124 83/167/125
f 45/87/126 44/86/123 83/167/125
f 46/88/127 45/87/126 83/167/125
f 47/89/128 46/88/127 83/167/125
f 48/90/129 47/89/128 83/167/125
f 49/91/130 48/90/129 83/167/125
f 50/92/131 49/91/130 83/167/125
f 51/93/132 50/92/131 83/167/125
f 52/94/133 51/93/132 83/167/125
f 53/95/134 52/94/133 83/167/125
f 54/96/135 53/95/134 83/167/125
f 55/97/136 54/96/135 83/167/125
f 56/98/137 55/97/136 83/167/125
f 57/99/138 56/98/137 83/167/125
f 58/100/139 57/99/138 83/167/125
f 59/101/140 58/100/139 83/167/125
f 60/102/141 59/101/140 83/167/125
f 61/103/142 60/102/141 83/167/125
f 62/104/143 61/103/142 83/167/125
f 43/85/124 62/104/143 83/167/125
s 3
f 63/165/144 64/164/145 84/168/146
f 64/164/145 65/163/147 84/168/146
f 65/163/147 66/162/148 84/168/146
f 66/162/148 67/161/149 84/168/146
f 67/161/149 68/160/150 84/168/146
f 68/160/150 69/159/151 84/168/146
f 69/159/151 70/158/152 84/168/146
f 70/158/152 71/157/153 84/168/146
f 71/157/153 72/156/154 84/168/146
f 72/156/154 73/155/155 84/168/146
f 73/155/155 74/154/156 84/168/146
f 74/154/156 75/153/157 84/168/146
f 75/153/157 76/152/158 84/168/146
f 76/152/158 77/151/159 84/168/146
f 77/151/159 78/150/160 84/168/146
f 78/150/160 79/149/161 84/168/146
f 79/149/161 80/148/162 84/168/146
f 80/148/162 81/147/163 84/168/146
f 81/147/163 82/166/164 84/168/146
f 82/166/164 63/165/144 84/168/146
