# This file uses centimeters as units for non-parametric coordinates.

mtllib House.mtl
g default
v 336.160889 -10.151460 249.124699
v 371.587486 -10.151460 249.124699
v 336.160889 3.650720 249.124699
v 371.587486 3.650720 249.124699
v 336.160889 270.030403 249.124699
v 371.587486 270.030403 249.124699
v 336.160889 283.832588 249.124699
v 371.587486 283.832588 249.124699
v 336.160889 283.832588 218.973713
v 371.587486 283.832588 218.973713
v 336.160889 283.832588 -218.973713
v 371.587486 283.832588 -218.973713
v 336.160889 283.832588 -249.124699
v 371.587486 283.832588 -249.124699
v 336.160889 270.030403 -249.124699
v 371.587486 270.030403 -249.124699
v 336.160889 3.650720 -249.124699
v 371.587486 3.650720 -249.124699
v 336.160889 -10.151460 -249.124699
v 371.587486 -10.151460 -249.124699
v 336.160889 -10.151460 -218.973713
v 371.587486 -10.151460 -218.973713
v 336.160889 -10.151460 218.973713
v 371.587486 -10.151460 218.973713
v 371.587486 3.650720 -218.973713
v 371.587486 3.650720 218.973713
v 371.587486 270.030403 -218.973713
v 371.587486 270.030403 218.973713
v 336.160889 3.650720 -218.973713
v 336.160889 3.650720 218.973713
v 336.160889 270.030403 -218.973713
v 336.160889 270.030403 218.973713
v -509.448318 -10.151460 249.124699
v -474.021797 -10.151460 249.124699
v -509.448318 3.650720 249.124699
v -474.021797 3.650720 249.124699
v -509.448318 270.030403 249.124699
v -474.021797 270.030403 249.124699
v -509.448318 283.832588 249.124699
v -474.021797 283.832588 249.124699
v -509.448318 283.832588 218.973713
v -474.021797 283.832588 218.973713
v -509.448318 283.832588 -218.973713
v -474.021797 283.832588 -218.973713
v -509.448318 283.832588 -249.124699
v -474.021797 283.832588 -249.124699
v -509.448318 270.030403 -249.124699
v -474.021797 270.030403 -249.124699
v -509.448318 3.650720 -249.124699
v -474.021797 3.650720 -249.124699
v -509.448318 -10.151460 -249.124699
v -474.021797 -10.151460 -249.124699
v -509.448318 -10.151460 -218.973713
v -474.021797 -10.151460 -218.973713
v -509.448318 -10.151460 218.973713
v -474.021797 -10.151460 218.973713
v -474.021797 3.650720 -218.973713
v -474.021797 3.650720 218.973713
v -474.021797 270.030403 -218.973713
v -474.021797 270.030403 218.973713
v -509.448318 3.650720 -218.973713
v -509.448318 3.650720 218.973713
v -509.448318 270.030403 -218.973713
v -509.448318 270.030403 218.973713
vt 0.818779 0.321684
vt 0.818779 0.309491
vt 0.827194 0.309491
vt 0.827194 0.321684
vt 0.989593 0.309491
vt 0.989593 0.321684
vt 0.998008 0.309491
vt 0.998008 0.321684
vt 0.293034 0.001739
vt 0.305227 0.001739
vt 0.305227 0.020121
vt 0.293034 0.020121
vt 0.305227 0.287118
vt 0.293034 0.287118
vt 0.305227 0.305499
vt 0.293034 0.305499
vt 0.633415 0.321684
vt 0.633415 0.309491
vt 0.641829 0.309491
vt 0.641829 0.321684
vt 0.804229 0.309491
vt 0.804229 0.321684
vt 0.812644 0.309491
vt 0.812644 0.321684
vt 0.603112 0.001739
vt 0.615305 0.001739
vt 0.615305 0.020121
vt 0.603112 0.020121
vt 0.615305 0.287118
vt 0.603112 0.287118
vt 0.615305 0.305499
vt 0.603112 0.305499
vt 0.621954 0.020121
vt 0.621954 0.001739
vt 0.630368 0.001739
vt 0.630368 0.020121
vt 0.621954 0.287118
vt 0.630368 0.287118
vt 0.621954 0.305499
vt 0.630368 0.305499
vt 0.792768 0.001739
vt 0.792768 0.020121
vt 0.792768 0.287118
vt 0.792768 0.305499
vt 0.801183 0.001739
vt 0.801183 0.020121
vt 0.801183 0.287118
vt 0.801183 0.305499
vt 0.024088 0.630460
vt 0.291085 0.630460
vt 0.291085 0.792860
vt 0.024088 0.792860
vt 0.818779 0.612725
vt 0.818779 0.600532
vt 0.827194 0.600532
vt 0.827194 0.612725
vt 0.989593 0.600532
vt 0.989593 0.612725
vt 0.998008 0.600532
vt 0.998008 0.612725
vt 0.001992 0.001739
vt 0.014185 0.001739
vt 0.014185 0.020121
vt 0.001992 0.020121
vt 0.014185 0.287118
vt 0.001992 0.287118
vt 0.014185 0.305499
vt 0.001992 0.305499
vt 0.633415 0.612725
vt 0.633415 0.600532
vt 0.641829 0.600532
vt 0.641829 0.612725
vt 0.804229 0.600532
vt 0.804229 0.612725
vt 0.812644 0.600532
vt 0.812644 0.612725
vt 0.312070 0.001739
vt 0.324263 0.001739
vt 0.324263 0.020121
vt 0.312070 0.020121
vt 0.324263 0.287118
vt 0.312070 0.287118
vt 0.324263 0.305499
vt 0.312070 0.305499
vt 0.024088 0.800019
vt 0.291085 0.800019
vt 0.291085 0.962418
vt 0.024088 0.962418
vt 0.809053 0.305499
vt 0.809053 0.287118
vt 0.817468 0.287118
vt 0.817468 0.305499
vt 0.809053 0.020121
vt 0.817468 0.020121
vt 0.809053 0.001739
vt 0.817468 0.001739
vt 0.979868 0.287118
vt 0.979868 0.305499
vt 0.979868 0.020121
vt 0.979868 0.001739
vt 0.988282 0.287118
vt 0.988282 0.305499
vt 0.988282 0.020121
vt 0.988282 0.001739
vt 0.923142 0.811994
vt 0.923142 0.995541
vt 0.525240 0.995541
vt 0.525240 0.811994
vt 0.291747 0.309491
vt 0.558744 0.309491
vt 0.558744 0.588339
vt 0.291747 0.588339
vt 0.507383 0.803739
vt 0.507383 0.620192
vt 0.905284 0.620192
vt 0.905285 0.803738
vt 0.001992 0.310781
vt 0.268989 0.310781
vt 0.268989 0.589629
vt 0.001992 0.589629
vn 0.000000 0.000000 1.000000
vn 0.000000 0.000000 1.000000
vn 0.000000 0.000000 1.000000
vn 0.000000 0.000000 1.000000
vn 0.000000 0.000000 1.000000
vn 0.000000 0.000000 1.000000
vn 0.000000 0.000000 1.000000
vn 0.000000 0.000000 1.000000
vn 0.000000 0.000000 1.000000
vn 0.000000 0.000000 1.000000
vn 0.000000 0.000000 1.000000
vn 0.000000 0.000000 1.000000
vn 0.000000 1.000000 0.000000
vn 0.000000 1.000000 0.000000
vn 0.000000 1.000000 0.000000
vn 0.000000 1.000000 0.000000
vn 0.000000 1.000000 0.000000
vn 0.000000 1.000000 0.000000
vn 0.000000 1.000000 0.000000
vn 0.000000 1.000000 0.000000
vn 0.000000 1.000000 0.000000
vn 0.000000 1.000000 0.000000
vn 0.000000 1.000000 0.000000
vn 0.000000 1.000000 0.000000
vn 0.000000 0.000000 -1.000000
vn 0.000000 0.000000 -1.000000
vn 0.000000 0.000000 -1.000000
vn 0.000000 0.000000 -1.000000
vn 0.000000 0.000000 -1.000000
vn 0.000000 0.000000 -1.000000
vn 0.000000 0.000000 -1.000000
vn 0.000000 0.000000 -1.000000
vn 0.000000 0.000000 -1.000000
vn 0.000000 0.000000 -1.000000
vn 0.000000 0.000000 -1.000000
vn 0.000000 0.000000 -1.000000
vn 0.000000 -1.000000 0.000000
vn 0.000000 -1.000000 0.000000
vn 0.000000 -1.000000 0.000000
vn 0.000000 -1.000000 0.000000
vn 0.000000 -1.000000 0.000000
vn 0.000000 -1.000000 0.000000
vn 0.000000 -1.000000 0.000000
vn 0.000000 -1.000000 0.000000
vn 0.000000 -1.000000 0.000000
vn 0.000000 -1.000000 0.000000
vn 0.000000 -1.000000 0.000000
vn 0.000000 -1.000000 0.000000
vn 1.000000 0.000000 0.000000
vn 1.000000 0.000000 0.000000
vn 1.000000 0.000000 0.000000
vn 1.000000 0.000000 0.000000
vn 1.000000 0.000000 0.000000
vn 1.000000 0.000000 0.000000
vn 1.000000 0.000000 0.000000
vn 1.000000 0.000000 0.000000
vn 1.000000 0.000000 0.000000
vn 1.000000 0.000000 0.000000
vn 1.000000 0.000000 0.000000
vn 1.000000 0.000000 0.000000
vn 1.000000 0.000000 0.000000
vn 1.000000 0.000000 0.000000
vn 1.000000 0.000000 0.000000
vn 1.000000 0.000000 0.000000
vn 1.000000 0.000000 0.000000
vn 1.000000 0.000000 0.000000
vn 1.000000 0.000000 0.000000
vn 1.000000 0.000000 0.000000
vn 1.000000 0.000000 0.000000
vn 1.000000 0.000000 0.000000
vn 1.000000 0.000000 0.000000
vn 1.000000 0.000000 0.000000
vn 1.000000 0.000000 0.000000
vn 1.000000 0.000000 0.000000
vn 1.000000 0.000000 0.000000
vn 1.000000 0.000000 0.000000
vn 1.000000 0.000000 0.000000
vn 1.000000 0.000000 0.000000
vn 1.000000 0.000000 0.000000
vn 1.000000 0.000000 0.000000
vn 1.000000 0.000000 0.000000
vn 1.000000 0.000000 0.000000
vn 1.000000 0.000000 0.000000
vn 1.000000 0.000000 0.000000
vn -1.000000 0.000000 0.000000
vn -1.000000 0.000000 0.000000
vn -1.000000 0.000000 0.000000
vn -1.000000 0.000000 0.000000
vn 0.000000 0.000000 1.000000
vn 0.000000 0.000000 1.000000
vn 0.000000 0.000000 1.000000
vn 0.000000 0.000000 1.000000
vn 0.000000 0.000000 1.000000
vn 0.000000 0.000000 1.000000
vn 0.000000 0.000000 1.000000
vn 0.000000 0.000000 1.000000
vn 0.000000 0.000000 1.000000
vn 0.000000 0.000000 1.000000
vn 0.000000 0.000000 1.000000
vn 0.000000 0.000000 1.000000
vn 0.000000 1.000000 0.000000
vn 0.000000 1.000000 0.000000
vn 0.000000 1.000000 0.000000
vn 0.000000 1.000000 0.000000
vn 0.000000 1.000000 0.000000
vn 0.000000 1.000000 0.000000
vn 0.000000 1.000000 0.000000
vn 0.000000 1.000000 0.000000
vn 0.000000 1.000000 0.000000
vn 0.000000 1.000000 0.000000
vn 0.000000 1.000000 0.000000
vn 0.000000 1.000000 0.000000
vn 0.000000 0.000000 -1.000000
vn 0.000000 0.000000 -1.000000
vn 0.000000 0.000000 -1.000000
vn 0.000000 0.000000 -1.000000
vn 0.000000 0.000000 -1.000000
vn 0.000000 0.000000 -1.000000
vn 0.000000 0.000000 -1.000000
vn 0.000000 0.000000 -1.000000
vn 0.000000 0.000000 -1.000000
vn 0.000000 0.000000 -1.000000
vn 0.000000 0.000000 -1.000000
vn 0.000000 0.000000 -1.000000
vn 0.000000 -1.000000 0.000000
vn 0.000000 -1.000000 0.000000
vn 0.000000 -1.000000 0.000000
vn 0.000000 -1.000000 0.000000
vn 0.000000 -1.000000 0.000000
vn 0.000000 -1.000000 0.000000
vn 0.000000 -1.000000 0.000000
vn 0.000000 -1.000000 0.000000
vn 0.000000 -1.000000 0.000000
vn 0.000000 -1.000000 0.000000
vn 0.000000 -1.000000 0.000000
vn 0.000000 -1.000000 0.000000
vn 1.000000 0.000000 0.000000
vn 1.000000 0.000000 0.000000
vn 1.000000 0.000000 0.000000
vn 1.000000 0.000000 0.000000
vn -1.000000 0.000000 0.000000
vn -1.000000 0.000000 0.000000
vn -1.000000 0.000000 0.000000
vn -1.000000 0.000000 0.000000
vn -1.000000 0.000000 0.000000
vn -1.000000 0.000000 0.000000
vn -1.000000 0.000000 0.000000
vn -1.000000 0.000000 0.000000
vn -1.000000 0.000000 0.000000
vn -1.000000 0.000000 0.000000
vn -1.000000 0.000000 0.000000
vn -1.000000 0.000000 0.000000
vn -1.000000 0.000000 0.000000
vn -1.000000 0.000000 0.000000
vn -1.000000 0.000000 0.000000
vn -1.000000 0.000000 0.000000
vn -1.000000 0.000000 0.000000
vn -1.000000 0.000000 0.000000
vn -1.000000 0.000000 0.000000
vn -1.000000 0.000000 0.000000
vn -1.000000 0.000000 0.000000
vn -1.000000 0.000000 0.000000
vn -1.000000 0.000000 0.000000
vn -1.000000 0.000000 0.000000
vn -1.000000 0.000000 0.000000
vn -1.000000 0.000000 0.000000
vn -1.000000 0.000000 0.000000
vn -1.000000 0.000000 0.000000
vn -1.000000 0.000000 0.000000
vn -1.000000 0.000000 0.000000
vn -1.000000 0.000000 0.000000
vn -1.000000 0.000000 0.000000
vn -1.000000 0.000000 0.000000
vn -1.000000 0.000000 0.000000
vn -1.000000 0.000000 0.000000
vn -1.000000 0.000000 0.000000
vn 0.000000 0.000000 -1.000000
vn 0.000000 0.000000 -1.000000
vn 0.000000 0.000000 -1.000000
vn 0.000000 0.000000 -1.000000
vn 0.000000 0.000000 -1.000000
vn 0.000000 0.000000 -1.000000
vn 0.000000 0.000000 -1.000000
vn 0.000000 0.000000 -1.000000
vn 0.000000 1.000000 0.000000
vn 0.000000 1.000000 0.000000
vn 0.000000 1.000000 0.000000
vn 0.000000 1.000000 0.000000
vn 0.000000 0.000000 -1.000000
vn 0.000000 0.000000 -1.000000
vn 0.000000 0.000000 -1.000000
vn 0.000000 0.000000 -1.000000
vn 0.000000 -1.000000 0.000000
vn 0.000000 -1.000000 0.000000
vn 0.000000 -1.000000 0.000000
vn 0.000000 -1.000000 0.000000
vn 0.000000 -1.000000 0.000000
vn 0.000000 -1.000000 0.000000
vn 0.000000 -1.000000 0.000000
vn 0.000000 -1.000000 0.000000
vn 0.000000 -1.000000 0.000000
vn 0.000000 -1.000000 0.000000
vn 0.000000 -1.000000 0.000000
vn 0.000000 -1.000000 0.000000
vn 0.000000 0.000000 1.000000
vn 0.000000 0.000000 1.000000
vn 0.000000 0.000000 1.000000
vn 0.000000 0.000000 1.000000
vn 0.000000 1.000000 0.000000
vn 0.000000 1.000000 0.000000
vn 0.000000 1.000000 0.000000
vn 0.000000 1.000000 0.000000
vn 0.000000 0.000000 1.000000
vn 0.000000 0.000000 1.000000
vn 0.000000 0.000000 1.000000
vn 0.000000 0.000000 1.000000
vn 0.000000 0.000000 1.000000
vn 0.000000 0.000000 1.000000
vn 0.000000 0.000000 1.000000
vn 0.000000 0.000000 1.000000
vn 0.000000 0.000000 1.000000
vn 0.000000 0.000000 1.000000
vn 0.000000 0.000000 1.000000
vn 0.000000 0.000000 1.000000
vn 0.000000 0.000000 -1.000000
vn 0.000000 0.000000 -1.000000
vn 0.000000 0.000000 -1.000000
vn 0.000000 0.000000 -1.000000
vn 0.000000 1.000000 0.000000
vn 0.000000 1.000000 0.000000
vn 0.000000 1.000000 0.000000
vn 0.000000 1.000000 0.000000
vn 0.000000 -1.000000 0.000000
vn 0.000000 -1.000000 0.000000
vn 0.000000 -1.000000 0.000000
vn 0.000000 -1.000000 0.000000
vn 0.000000 1.000000 0.000000
vn 0.000000 1.000000 0.000000
vn 0.000000 1.000000 0.000000
vn 0.000000 1.000000 0.000000
s off
g pasted__pCube1
usemtl initialShadingGroup
f 1/1/1 2/2/2 4/3/3 3/4/4
f 3/4/5 4/3/6 6/5/7 5/6/8
f 5/6/9 6/5/10 8/7/11 7/8/12
f 7/9/13 8/10/14 10/11/15 9/12/16
f 9/12/17 10/11/18 12/13/19 11/14/20
f 11/14/21 12/13/22 14/15/23 13/16/24
f 13/17/25 14/18/26 16/19/27 15/20/28
f 15/20/29 16/19/30 18/21/31 17/22/32
f 17/22/33 18/21/34 20/23/35 19/24/36
f 19/25/37 20/26/38 22/27/39 21/28/40
f 21/28/41 22/27/42 24/29/43 23/30/44
f 23/30/45 24/29/46 2/31/47 1/32/48
f 22/33/49 20/34/50 18/35/51 25/36/52
f 24/37/53 22/33/54 25/36/55 26/38/56
f 2/39/57 24/37/58 26/38/59 4/40/60
f 25/36/61 18/35/62 16/41/63 27/42/64
f 26/38/65 25/36/66 27/42/67 28/43/68
f 4/40/69 26/38/70 28/43/71 6/44/72
f 27/42/73 16/41/74 14/45/75 12/46/76
f 28/43/77 27/42/78 12/46/79 10/47/80
f 6/44/81 28/43/82 10/47/83 8/48/84
f 29/49/85 30/50/86 32/51/87 31/52/88
f 33/53/89 34/54/90 36/55/91 35/56/92
f 35/56/93 36/55/94 38/57/95 37/58/96
f 37/58/97 38/57/98 40/59/99 39/60/100
f 39/61/101 40/62/102 42/63/103 41/64/104
f 41/64/105 42/63/106 44/65/107 43/66/108
f 43/66/109 44/65/110 46/67/111 45/68/112
f 45/69/113 46/70/114 48/71/115 47/72/116
f 47/72/117 48/71/118 50/73/119 49/74/120
f 49/74/121 50/73/122 52/75/123 51/76/124
f 51/77/125 52/78/126 54/79/127 53/80/128
f 53/80/129 54/79/130 56/81/131 55/82/132
f 55/82/133 56/81/134 34/83/135 33/84/136
f 58/85/137 57/86/138 59/87/139 60/88/140
f 51/89/141 53/90/142 61/91/143 49/92/144
f 53/90/145 55/93/146 62/94/147 61/91/148
f 55/93/149 33/95/150 35/96/151 62/94/152
f 49/92/153 61/91/154 63/97/155 47/98/156
f 61/91/157 62/94/158 64/99/159 63/97/160
f 62/94/161 35/96/162 37/100/163 64/99/164
f 47/98/165 63/97/166 43/101/167 45/102/168
f 63/97/169 64/99/170 41/103/171 43/101/172
f 64/99/173 37/100/174 39/104/175 41/103/176
f 15/20/177 17/22/178 50/73/179 48/71/180
f 13/17/181 15/20/182 48/71/183 46/70/184
f 11/14/185 13/16/186 46/67/187 44/65/188
f 17/22/189 19/24/190 52/75/191 50/73/192
f 19/25/193 21/28/194 54/79/195 52/78/196
f 21/28/197 23/30/198 56/81/199 54/79/200
f 23/30/201 1/32/202 34/83/203 56/81/204
f 29/105/205 31/106/206 59/107/207 57/108/208
f 30/109/209 29/110/210 57/111/211 58/112/212
f 1/1/213 3/4/214 36/55/215 34/54/216
f 3/4/217 5/6/218 38/57/219 36/55/220
f 5/6/221 7/8/222 40/59/223 38/57/224
f 32/113/225 30/114/226 58/115/227 60/116/228
f 7/9/229 9/12/230 42/63/231 40/62/232
f 31/117/233 32/118/234 60/119/235 59/120/236
f 9/12/237 11/14/238 44/65/239 42/63/240
