# This file uses centimeters as units for non-parametric coordinates.

mtllib Pad.mtl
g default
v -1.629926 -0.821078 1.629926
v 1.629926 -0.821078 1.629926
v -1.629926 0.178922 1.629926
v 1.629926 0.178922 1.629926
v -1.629926 0.178922 -1.629926
v 1.629926 0.178922 -1.629926
v -1.629926 -0.821078 -1.629926
v 1.629926 -0.821078 -1.629926
vt 0.082667 0.839264
vt 0.216900 0.839264
vt 0.216900 0.973497
vt 0.082667 0.973497
vt 0.219888 0.839264
vt 0.354121 0.839264
vt 0.354121 0.973497
vt 0.219888 0.973497
vt 0.324432 0.029773
vt 0.960376 0.029773
vt 0.960376 0.665717
vt 0.324432 0.665717
vt 0.196931 0.703489
vt 0.331164 0.703489
vt 0.331164 0.837721
vt 0.196931 0.837721
vt 0.082667 0.567713
vt 0.216900 0.567713
vt 0.216900 0.701945
vt 0.082667 0.701945
vt 0.333536 0.703488
vt 0.467768 0.703488
vt 0.467768 0.837721
vt 0.333536 0.837721
vn 0.000000 0.000000 1.000000
vn 0.000000 0.000000 1.000000
vn 0.000000 0.000000 1.000000
vn 0.000000 0.000000 1.000000
vn 0.000000 1.000000 0.000000
vn 0.000000 1.000000 0.000000
vn 0.000000 1.000000 0.000000
vn 0.000000 1.000000 0.000000
vn 0.000000 0.000000 -1.000000
vn 0.000000 0.000000 -1.000000
vn 0.000000 0.000000 -1.000000
vn 0.000000 0.000000 -1.000000
vn 0.000000 -1.000000 0.000000
vn 0.000000 -1.000000 0.000000
vn 0.000000 -1.000000 0.000000
vn 0.000000 -1.000000 0.000000
vn 1.000000 0.000000 0.000000
vn 1.000000 0.000000 0.000000
vn 1.000000 0.000000 0.000000
vn 1.000000 0.000000 0.000000
vn -1.000000 0.000000 0.000000
vn -1.000000 0.000000 0.000000
vn -1.000000 0.000000 0.000000
vn -1.000000 0.000000 0.000000
s off
g pCube1
usemtl initialShadingGroup
f 1/17/1 2/18/2 4/19/3 3/20/4
f 3/9/5 4/10/6 6/11/7 5/12/8
f 5/21/9 6/22/10 8/23/11 7/24/12
f 7/13/13 8/14/14 2/15/15 1/16/16
f 2/1/17 8/2/18 6/3/19 4/4/20
f 7/5/21 1/6/22 3/7/23 5/8/24
